<svg xmlns="http://www.w3.org/2000/svg" width="100%" viewBox="0 0 400 320" role="img" aria-labelledby="title desc">
<title id="title">9 NeoPixel daisy chain wiring diagram</title>
<desc id="desc">Schematic showing 9 NeoPixels wired in a chain, with middle LEDs represented by a dashed line for compactness.</desc>
<defs>
<style>
  .label { font-family: -apple-system, BlinkMacSystemFont, "Segoe UI", sans-serif; font-size: 12px; fill: #666; }
  .led-label { font-family: -apple-system, BlinkMacSystemFont, "Segoe UI", sans-serif; font-size: 9px; font-weight: 500; fill: #444441; }
  .led { fill: #FFFFFF; stroke: #888780; stroke-width: 1; }
</style>
<marker id="arrow" viewBox="0 0 10 10" refX="8" refY="5" markerWidth="6" markerHeight="6" orient="auto-start-reverse">
  <path d="M2 1L8 5L2 9" fill="none" stroke="context-stroke" stroke-width="1.5" stroke-linecap="round" stroke-linejoin="round"/>
</marker>
</defs>

<text class="label" x="65" y="80" text-anchor="end" dominant-baseline="central">V+</text>
<line x1="80" y1="80" x2="365" y2="80" stroke="#E24B4A" stroke-width="2"/>

<text class="label" x="65" y="170" text-anchor="end" dominant-baseline="central">DATA</text>

<text class="label" x="65" y="260" text-anchor="end" dominant-baseline="central">GND</text>
<line x1="80" y1="260" x2="365" y2="260" stroke="#444441" stroke-width="2"/>

<line x1="125" y1="80" x2="125" y2="154" stroke="#E24B4A" stroke-width="1"/>
<circle class="led" cx="125" cy="170" r="16"/>
<text class="led-label" x="125" y="166" text-anchor="middle" dominant-baseline="central">LED</text>
<text class="led-label" x="125" y="178" text-anchor="middle" dominant-baseline="central">1</text>
<line x1="125" y1="186" x2="125" y2="260" stroke="#444441" stroke-width="1"/>

<line x1="185" y1="80" x2="185" y2="154" stroke="#E24B4A" stroke-width="1"/>
<circle class="led" cx="185" cy="170" r="16"/>
<text class="led-label" x="185" y="166" text-anchor="middle" dominant-baseline="central">LED</text>
<text class="led-label" x="185" y="178" text-anchor="middle" dominant-baseline="central">2</text>
<line x1="185" y1="186" x2="185" y2="260" stroke="#444441" stroke-width="1"/>

<line x1="305" y1="80" x2="305" y2="154" stroke="#E24B4A" stroke-width="1"/>
<circle class="led" cx="305" cy="170" r="16"/>
<text class="led-label" x="305" y="166" text-anchor="middle" dominant-baseline="central">LED</text>
<text class="led-label" x="305" y="178" text-anchor="middle" dominant-baseline="central">8</text>
<line x1="305" y1="186" x2="305" y2="260" stroke="#444441" stroke-width="1"/>

<line x1="365" y1="80" x2="365" y2="154" stroke="#E24B4A" stroke-width="1"/>
<circle class="led" cx="365" cy="170" r="16"/>
<text class="led-label" x="365" y="166" text-anchor="middle" dominant-baseline="central">LED</text>
<text class="led-label" x="365" y="178" text-anchor="middle" dominant-baseline="central">9</text>
<line x1="365" y1="186" x2="365" y2="260" stroke="#444441" stroke-width="1"/>

<line x1="80" y1="170" x2="107" y2="170" stroke="#185FA5" stroke-width="1.5" marker-end="url(#arrow)"/>
<line x1="141" y1="170" x2="167" y2="170" stroke="#185FA5" stroke-width="1.5" marker-end="url(#arrow)"/>
<line x1="201" y1="170" x2="287" y2="170" stroke="#185FA5" stroke-width="1.5" stroke-dasharray="4 4" marker-end="url(#arrow)"/>
<line x1="321" y1="170" x2="347" y2="170" stroke="#185FA5" stroke-width="1.5" marker-end="url(#arrow)"/>

</svg>