<svg xmlns="http://www.w3.org/2000/svg" width="100%" viewBox="0 0 680 320" role="img" aria-labelledby="title desc">
<title id="title">9 NeoPixel daisy chain wiring diagram</title>
<desc id="desc">Schematic showing 9 NeoPixels wired in a chain with shared V plus and GND rails and a serial data line connecting each LED to the next.</desc>
<defs>
<style>
  .label { font-family: -apple-system, BlinkMacSystemFont, "Segoe UI", sans-serif; font-size: 12px; fill: #666; }
  .led-label { font-family: -apple-system, BlinkMacSystemFont, "Segoe UI", sans-serif; font-size: 9px; font-weight: 500; fill: #444441; }
  .led { fill: #FFFFFF; stroke: #888780; stroke-width: 1; }
</style>
<marker id="arrow" viewBox="0 0 10 10" refX="8" refY="5" markerWidth="6" markerHeight="6" orient="auto-start-reverse">
  <path d="M2 1L8 5L2 9" fill="none" stroke="context-stroke" stroke-width="1.5" stroke-linecap="round" stroke-linejoin="round"/>
</marker>
</defs>

<text class="label" x="65" y="80" text-anchor="end" dominant-baseline="central">V+</text>
<line x1="80" y1="80" x2="660" y2="80" stroke="#E24B4A" stroke-width="2"/>

<text class="label" x="65" y="170" text-anchor="end" dominant-baseline="central">DATA</text>

<text class="label" x="65" y="260" text-anchor="end" dominant-baseline="central">GND</text>
<line x1="80" y1="260" x2="660" y2="260" stroke="#444441" stroke-width="2"/>

<line x1="125" y1="80" x2="125" y2="154" stroke="#E24B4A" stroke-width="1"/>
<circle class="led" cx="125" cy="170" r="16"/>
<text class="led-label" x="125" y="166" text-anchor="middle" dominant-baseline="central">LED</text>
<text class="led-label" x="125" y="178" text-anchor="middle" dominant-baseline="central">1</text>
<line x1="125" y1="186" x2="125" y2="260" stroke="#444441" stroke-width="1"/>

<line x1="185" y1="80" x2="185" y2="154" stroke="#E24B4A" stroke-width="1"/>
<circle class="led" cx="185" cy="170" r="16"/>
<text class="led-label" x="185" y="166" text-anchor="middle" dominant-baseline="central">LED</text>
<text class="led-label" x="185" y="178" text-anchor="middle" dominant-baseline="central">2</text>
<line x1="185" y1="186" x2="185" y2="260" stroke="#444441" stroke-width="1"/>

<line x1="245" y1="80" x2="245" y2="154" stroke="#E24B4A" stroke-width="1"/>
<circle class="led" cx="245" cy="170" r="16"/>
<text class="led-label" x="245" y="166" text-anchor="middle" dominant-baseline="central">LED</text>
<text class="led-label" x="245" y="178" text-anchor="middle" dominant-baseline="central">3</text>
<line x1="245" y1="186" x2="245" y2="260" stroke="#444441" stroke-width="1"/>

<line x1="305" y1="80" x2="305" y2="154" stroke="#E24B4A" stroke-width="1"/>
<circle class="led" cx="305" cy="170" r="16"/>
<text class="led-label" x="305" y="166" text-anchor="middle" dominant-baseline="central">LED</text>
<text class="led-label" x="305" y="178" text-anchor="middle" dominant-baseline="central">4</text>
<line x1="305" y1="186" x2="305" y2="260" stroke="#444441" stroke-width="1"/>

<line x1="365" y1="80" x2="365" y2="154" stroke="#E24B4A" stroke-width="1"/>
<circle class="led" cx="365" cy="170" r="16"/>
<text class="led-label" x="365" y="166" text-anchor="middle" dominant-baseline="central">LED</text>
<text class="led-label" x="365" y="178" text-anchor="middle" dominant-baseline="central">5</text>
<line x1="365" y1="186" x2="365" y2="260" stroke="#444441" stroke-width="1"/>

<line x1="425" y1="80" x2="425" y2="154" stroke="#E24B4A" stroke-width="1"/>
<circle class="led" cx="425" cy="170" r="16"/>
<text class="led-label" x="425" y="166" text-anchor="middle" dominant-baseline="central">LED</text>
<text class="led-label" x="425" y="178" text-anchor="middle" dominant-baseline="central">6</text>
<line x1="425" y1="186" x2="425" y2="260" stroke="#444441" stroke-width="1"/>

<line x1="485" y1="80" x2="485" y2="154" stroke="#E24B4A" stroke-width="1"/>
<circle class="led" cx="485" cy="170" r="16"/>
<text class="led-label" x="485" y="166" text-anchor="middle" dominant-baseline="central">LED</text>
<text class="led-label" x="485" y="178" text-anchor="middle" dominant-baseline="central">7</text>
<line x1="485" y1="186" x2="485" y2="260" stroke="#444441" stroke-width="1"/>

<line x1="545" y1="80" x2="545" y2="154" stroke="#E24B4A" stroke-width="1"/>
<circle class="led" cx="545" cy="170" r="16"/>
<text class="led-label" x="545" y="166" text-anchor="middle" dominant-baseline="central">LED</text>
<text class="led-label" x="545" y="178" text-anchor="middle" dominant-baseline="central">8</text>
<line x1="545" y1="186" x2="545" y2="260" stroke="#444441" stroke-width="1"/>

<line x1="605" y1="80" x2="605" y2="154" stroke="#E24B4A" stroke-width="1"/>
<circle class="led" cx="605" cy="170" r="16"/>
<text class="led-label" x="605" y="166" text-anchor="middle" dominant-baseline="central">LED</text>
<text class="led-label" x="605" y="178" text-anchor="middle" dominant-baseline="central">9</text>
<line x1="605" y1="186" x2="605" y2="260" stroke="#444441" stroke-width="1"/>

<line x1="80" y1="170" x2="107" y2="170" stroke="#185FA5" stroke-width="1.5" marker-end="url(#arrow)"/>
<line x1="141" y1="170" x2="167" y2="170" stroke="#185FA5" stroke-width="1.5" marker-end="url(#arrow)"/>
<line x1="201" y1="170" x2="227" y2="170" stroke="#185FA5" stroke-width="1.5" marker-end="url(#arrow)"/>
<line x1="261" y1="170" x2="287" y2="170" stroke="#185FA5" stroke-width="1.5" marker-end="url(#arrow)"/>
<line x1="321" y1="170" x2="347" y2="170" stroke="#185FA5" stroke-width="1.5" marker-end="url(#arrow)"/>
<line x1="381" y1="170" x2="407" y2="170" stroke="#185FA5" stroke-width="1.5" marker-end="url(#arrow)"/>
<line x1="441" y1="170" x2="467" y2="170" stroke="#185FA5" stroke-width="1.5" marker-end="url(#arrow)"/>
<line x1="501" y1="170" x2="527" y2="170" stroke="#185FA5" stroke-width="1.5" marker-end="url(#arrow)"/>
<line x1="561" y1="170" x2="587" y2="170" stroke="#185FA5" stroke-width="1.5" marker-end="url(#arrow)"/>
<line x1="621" y1="170" x2="660" y2="170" stroke="#185FA5" stroke-width="1.5" stroke-dasharray="3 3"/>
<text class="label" x="660" y="155" text-anchor="end" dominant-baseline="central">taped</text>

</svg>
